<svg version="1" xmlns="http://www.w3.org/2000/svg" width="597.333" height="597.333" viewBox="0 0 448 448"><path d="M218 83.5c-7 1.9-9.2 3-13.1 6.6-1.9 1.9-5.8 5.3-8.5 7.6-5.2 4.4-8.4 7.1-12.4 10.6-3.9 3.4-26 22.5-31.3 27.1-2.7 2.2-5.8 5-7.1 6.1-1.2 1.1-4.4 3.8-7 6-2.6 2.2-6.2 5.3-8 7-1.8 1.6-7 6.1-11.6 10-4.5 3.8-9.5 8.1-11.1 9.5-1.5 1.4-4.9 4.3-7.4 6.5-2.6 2.2-5.2 4.5-5.9 5-1.6 1.5-22.7 19.6-25 21.5-5.2 4.3-11.6 11.6-11.7 13.4-.1 1.2-.2 2.8-.3 3.6-.3 2.8 3.7 8.9 6.8 10.4 3.8 1.7 23.4 1.9 25.2.2.6-.6 3.7-3.4 6.9-6.1 3.3-2.8 6.9-5.9 8.1-7 1.3-1.1 3.9-3.4 5.9-5 1.9-1.7 5.1-4.4 6.9-6 1.8-1.7 5.5-4.9 8.2-7.1 2.7-2.3 6-5.2 7.4-6.5 1.4-1.3 5-4.4 8-6.9s6.2-5.2 7-6c.9-.8 3-2.6 4.6-4 30.1-25.8 35-30.1 47-40.6 12.3-10.8 23.8-20.4 24.3-20.4.4 0 1.8 1.1 3.3 2.5 1.5 1.4 11 9.6 21 18.2 10.1 8.6 18.8 16.2 19.4 16.7.6.6 3.3 3 6 5.3s6 5.1 7.4 6.3c1.4 1.2 4.7 4.1 7.4 6.4 2.6 2.2 6.1 5.2 7.6 6.6 1.5 1.4 4 3.6 5.6 4.9 4.9 4.1 15.9 13.6 16.4 14.1.3.3 3.4 3 7 6s7.2 6.2 8.2 7.1c.9.9 3.8 3.4 6.5 5.5 2.6 2.1 5.5 4.6 6.3 5.4.8.8 4.2 3.8 7.5 6.7l6 5.1h10.7c8.7 0 11.2-.4 13.8-1.9 4-2.5 6.3-7.9 5.5-13-.7-4.2-2.8-6.4-17.5-18.8-3.6-3-7.5-6.4-8.6-7.5-1.2-1.2-3.9-3.5-6-5.3-2.2-1.7-5.5-4.6-7.4-6.3-1.9-1.7-5.2-4.6-7.3-6.3-2.1-1.8-4.9-4.1-6.1-5.2-2-1.8-7.9-6.9-15.5-13.4l-2.3-2v-26.5c0-24.3-.1-26.6-1.9-29.6-2.8-4.5-6.9-5.8-16.9-5.6-9 .2-11.7 1.1-14.8 5.1-1.7 2.1-2 4.2-2.1 13.7-.1 6.2-.3 11.3-.4 11.5-.1.1-2.1-1.5-4.3-3.5-2.3-2-5.5-4.8-7.1-6.2-7.7-6.5-23.9-20.5-24.3-21-.3-.4-2.9-2.5-5.7-4.7-7.8-6.1-15.3-8-23.3-5.8z"/><path d="M220.5 136.7c-1.6 1.4-5.5 4.7-8.5 7.3-3 2.6-11.1 9.6-18 15.6s-15 12.9-17.9 15.4c-3 2.5-7.2 6.1-9.5 8.1-2.2 2-11.5 10-20.6 17.8-9.1 7.9-17.8 15.5-19.5 17-1.6 1.4-7.2 6.2-12.3 10.6l-9.2 7.9v54.5c0 52.7.1 54.8 2.1 59.1 2.9 6.4 10.9 13.6 16.2 14.6 6.5 1.2 64.7 1.1 64.8-.1 0-.6.2-17.2.4-37 .1-19.8.5-37.1.8-38.4 1.6-6.1 8.9-13.5 15.2-15.3 2.2-.6 11.2-1.1 20-1.1 13.9 0 16.6.2 20.5 2 5.6 2.5 9.3 6.1 12.1 11.9 2 4.3 2.1 5.8 2.2 41.7l.2 37.2 32-.1c31 0 32.1-.1 36.3-2.3 3.8-1.9 12.9-10.3 12.2-11.2-.2-.2.3-1.5 1-2.9 1.1-2 1.4-12.8 1.5-57.3 0-30.2-.2-55.2-.5-55.6-.3-.4-7.2-6.5-15.5-13.6-14.4-12.3-26.6-22.9-28.9-25-.6-.6-7.2-6.2-14.6-12.5-7.4-6.3-15.1-12.9-17-14.7-1.9-1.7-6-5.2-9-7.8-3-2.6-6.9-5.9-8.5-7.4-1.7-1.4-7.5-6.4-13-11.1-5.5-4.7-10.1-8.8-10.3-9.3-.6-1.2-1.5-.8-4.7 2z"/></svg>