<svg width="26" height="32" viewBox="0 0 26 32" fill="none" xmlns="http://www.w3.org/2000/svg">
<path fill-rule="evenodd" clip-rule="evenodd" d="M11.3849 30.0735C10.4914 29.9591 8.23691 28.3789 7.48361 27.736C5.27778 25.8535 3.48696 23.1695 2.37537 20.3216C1.536 18.1715 1.46328 17.2811 1.4466 15.0165L1.44726 5.60052C1.4506 4.13477 1.25243 4.03108 2.35802 3.40022C4.93283 1.93112 9.42789 1.40262 12.8361 1.42068C16.427 1.44009 20.6005 1.89901 23.3288 3.43768C24.4017 4.04312 24.1862 4.27124 24.1782 5.70622L24.1768 15.0694C24.1968 17.3747 23.956 18.4672 23.2167 20.3985C21.8782 23.894 19.4669 27.0817 16.2996 29.07C15.9667 29.2787 14.6209 30.042 14.2306 30.0721C14.6209 28.7027 14.8417 27.5032 14.6382 25.6233L10.9718 25.6227C10.8411 27.1205 11.0232 29.0151 11.3849 30.0735ZM0.036757 16.7626C0.32166 20.6514 3.17136 25.5805 5.34984 27.6531C5.65476 27.9421 5.91231 28.2632 6.25326 28.5462C7.7952 29.8253 8.66926 30.4909 10.6436 31.3378C11.0239 31.5004 11.5443 31.6931 11.9707 31.8075C12.7346 32.0122 12.6446 32.0884 13.4412 31.8617C16.9054 30.8736 19.8145 28.6151 21.8222 25.826C22.793 24.4767 23.7011 22.9989 24.413 21.2281C25.2497 19.1482 25.6053 17.738 25.5993 15.2279L25.6 4.38096C25.578 -0.257807 7.98403 -1.57237 1.62741 2.19069C-0.242142 3.29787 0.0107354 4.20234 0.0267487 5.97047L0.0254142 13.1648C0.0374242 14.3114 -0.0453112 15.6434 0.036757 16.7626Z" fill="#666666"/>
<path fill-rule="evenodd" clip-rule="evenodd" d="M2.93781 16.8157C3.07459 17.0197 3.2107 17.292 3.35482 17.5235C5.36916 21.4946 7.84922 23.1764 12.5124 21.2116C12.6412 21.1581 12.7566 21.128 12.8594 21.1353C12.9468 21.1414 13.0262 21.1567 13.0996 21.1888C16.4764 22.6559 20.1721 22.5456 22.2866 17.4927C22.4313 17.2498 22.5901 17.0411 22.6856 16.817C22.2992 17.1087 21.7474 16.6892 21.5219 17.0793C20.4157 18.9952 17.5273 22.0739 14.0911 18.7671C13.552 18.248 13.8042 18.167 12.7833 18.1724C12.2289 18.1757 12.1681 18.0988 11.9293 18.3222C9.70343 20.9627 6.08108 20.0215 4.11745 17.0659C3.84523 16.6558 3.3368 16.9709 2.93781 16.8157Z" fill="#666666"/>
<path fill-rule="evenodd" clip-rule="evenodd" d="M3.29218 7.58748C4.12153 7.3239 4.38108 7.10715 5.59476 6.87768C8.44712 6.33781 9.23511 7.82965 9.93636 8.30129C10.6163 8.75821 12.0588 8.3421 11.7065 7.63966C11.5664 7.36136 10.4902 6.68167 10.1125 6.48766C7.7779 5.28549 4.62061 6.01067 3.29218 7.58748Z" fill="#666666"/>
<path fill-rule="evenodd" clip-rule="evenodd" d="M22.4581 7.586C21.8049 6.71765 20.0835 5.8774 18.2479 5.89078C17.1777 5.89881 16.2843 6.15637 15.6705 6.47347C15.3355 6.64674 14.1939 7.35386 14.0504 7.64086C13.7115 8.31854 15.0559 8.74937 15.7946 8.32055C16.3417 8.00278 17.1897 6.34436 20.1222 6.86817C21.3125 7.08024 21.8469 7.41674 22.4581 7.586Z" fill="#666666"/>
<path fill-rule="evenodd" clip-rule="evenodd" d="M3.97205 10.7727C4.86812 11.991 8.2129 12.3489 9.59672 10.7727C8.39772 9.31369 4.98422 9.45217 3.97205 10.7727Z" fill="#666666"/>
<path fill-rule="evenodd" clip-rule="evenodd" d="M16.1587 10.7732C17.3904 12.2818 20.8613 12.0483 21.784 10.7732C20.8199 9.49413 17.4224 9.27403 16.1587 10.7732Z" fill="#666666"/>
<path fill-rule="evenodd" clip-rule="evenodd" d="M12.1762 17.3976C11.8626 17.5301 10.5595 18.0546 10.1118 17.5997C9.2691 16.7427 11.2901 16.1018 12.1762 17.3976Z" fill="#666666"/>
<path fill-rule="evenodd" clip-rule="evenodd" d="M13.6008 17.3976C13.9137 17.5301 15.2168 18.0546 15.6645 17.5997C16.5072 16.7427 14.4868 16.1018 13.6008 17.3976Z" fill="#666666"/>
<path fill-rule="evenodd" clip-rule="evenodd" d="M23.6297 16.5081C22.1438 17.822 18.5541 17.7691 16.7947 15.2336C19.4202 16.979 21.4465 16.9014 23.6297 16.5081Z" fill="#666666"/>
<path d="M22.9345 12.0197C23.1177 12.0197 23.2661 11.8709 23.2661 11.6872C23.2661 11.5036 23.1177 11.3547 22.9345 11.3547C22.7514 11.3547 22.6029 11.5036 22.6029 11.6872C22.6029 11.8709 22.7514 12.0197 22.9345 12.0197Z" fill="#666666"/>
<path d="M2.85785 12.0197C3.041 12.0197 3.18946 11.8709 3.18946 11.6872C3.18946 11.5036 3.041 11.3547 2.85785 11.3547C2.67471 11.3547 2.52625 11.5036 2.52625 11.6872C2.52625 11.8709 2.67471 12.0197 2.85785 12.0197Z" fill="#666666"/>
<path fill-rule="evenodd" clip-rule="evenodd" d="M7.78321 26.64C4.15152 24.0169 1.77488 19.2865 1.35453 17.3899C1.10566 16.264 1.32584 13.2636 1.34719 14.3253C1.38122 15.9857 2.68697 19.4243 3.92667 21.7042C5.54401 24.6799 7.87795 26.7083 7.78321 26.64Z" fill="#666666"/>
<path d="M7.77919 26.6451C6.24592 25.5379 4.93616 24.0548 3.90264 22.5683C2.48746 20.5319 1.59072 18.4874 1.34785 17.391C1.19505 16.6999 1.21907 15.3051 1.26511 14.5732C1.27579 14.4053 1.2878 14.2721 1.29847 14.1905C1.31315 14.0848 1.32783 14.0527 1.34118 14.1163C1.34718 14.145 1.35185 14.2126 1.35385 14.325C1.37053 15.1111 1.67212 16.2972 2.11649 17.5696C2.61023 18.9818 3.28079 20.5018 3.93266 21.7006C5.37586 24.3558 7.38887 26.2564 7.73782 26.5855C7.76118 26.6076 7.78119 26.6263 7.79654 26.6411C7.81389 26.6538 7.81255 26.6531 7.80255 26.6471C7.84391 26.6872 7.84591 26.6932 7.77919 26.6451ZM3.91398 22.5602C4.92949 24.022 6.21256 25.4797 7.71314 26.5802C7.32281 26.2116 5.3445 24.3264 3.92065 21.7073C3.26878 20.5078 2.59822 18.9872 2.10381 17.5736C1.65877 16.2998 1.35719 15.1131 1.34051 14.325C1.33851 14.2139 1.33384 14.147 1.3285 14.1189C1.32583 14.1069 1.31982 14.1343 1.31182 14.1919C1.30048 14.2735 1.28913 14.4059 1.27846 14.5739C1.23242 15.3051 1.2084 16.6986 1.36119 17.3876C1.60339 18.4834 2.49947 20.5258 3.91398 22.5602ZM17.8903 26.5802C19.3902 25.4797 20.6732 24.022 21.6894 22.5602C23.1033 20.5258 23.9993 18.4834 24.2422 17.3876C24.3943 16.6986 24.371 15.3051 24.3249 14.5739C24.3143 14.4059 24.3023 14.2735 24.2916 14.1919C24.2836 14.1343 24.2776 14.1069 24.2749 14.1189C24.2689 14.147 24.2649 14.2139 24.2622 14.325C24.2462 15.1131 23.944 16.2998 23.4989 17.5736C23.0052 18.9872 22.3346 20.5078 21.6827 21.7073C20.2582 24.3264 18.2799 26.2116 17.8903 26.5802ZM21.7001 22.5683C20.6672 24.0548 19.3575 25.5379 17.8242 26.6451C17.7575 26.6932 17.7595 26.6872 17.8002 26.6471C17.7908 26.6531 17.7895 26.6538 17.8069 26.6411C17.8222 26.6263 17.8422 26.6076 17.8649 26.5855C18.2139 26.2564 20.2275 24.3558 21.6707 21.7006C22.3226 20.5018 22.9925 18.9818 23.4862 17.5696C23.9313 16.2972 24.2329 15.1111 24.2489 14.325C24.2515 14.2126 24.2556 14.145 24.2616 14.1163C24.2749 14.0527 24.2902 14.0848 24.3043 14.1905C24.3156 14.2721 24.3276 14.4053 24.3383 14.5732C24.3843 15.3051 24.4077 16.6999 24.2549 17.391C24.012 18.4874 23.1153 20.5319 21.7001 22.5683Z" fill="#666666"/>
<path fill-rule="evenodd" clip-rule="evenodd" d="M2.00641 16.5503C3.49298 17.8642 7.08263 17.8113 8.84209 15.2759C6.21591 17.0213 4.18956 16.9437 2.00641 16.5503Z" fill="#666666"/>
<path fill-rule="evenodd" clip-rule="evenodd" d="M17.8202 26.64C21.4519 24.0169 23.8285 19.2865 24.2489 17.3899C24.4977 16.264 24.2775 13.2636 24.2555 14.3253C24.2215 15.9857 22.9157 19.4243 21.6767 21.7042C20.0587 24.6799 17.7254 26.7083 17.8202 26.64Z" fill="#666666"/>
<path fill-rule="evenodd" clip-rule="evenodd" d="M17.201 22.8073H8.39905C10.0804 22.0212 14.6609 21.8754 17.201 22.8073Z" fill="#666666"/>
<path d="M13.6048 23.2244H11.9981C11.8993 23.2244 11.8193 23.2983 11.8193 23.3896C11.8193 23.4809 11.8993 23.5548 11.9981 23.5548H13.6048C13.7035 23.5548 13.7836 23.4809 13.7836 23.3896C13.7836 23.2983 13.7035 23.2244 13.6048 23.2244Z" fill="#666666"/>
</svg>