<svg width="12" height="10" viewBox="0 0 12 10" fill="none" xmlns="http://www.w3.org/2000/svg">
<path d="M10.4968 2.0732C9.99451 1.43313 9.31224 0.927562 8.45017 0.556528C7.58812 0.18554 6.64632 0 5.6251 0C4.86334 0 4.1351 0.10955 3.44036 0.328696C2.74563 0.547819 2.14716 0.844003 1.64491 1.21718C1.14258 1.5904 0.742978 2.03412 0.445778 2.54831C0.148578 3.06252 0 3.60175 0 4.16589C0 4.81678 0.189323 5.42668 0.568124 5.99516C0.946924 6.56357 1.46478 7.04098 2.12194 7.4272C2.07585 7.60072 2.02145 7.76568 1.95865 7.92178C1.89587 8.078 1.83938 8.20618 1.78916 8.30597C1.73889 8.40576 1.67095 8.51647 1.58508 8.63797C1.49935 8.75945 1.43448 8.84519 1.39053 8.89503C1.34661 8.94496 1.27442 9.02754 1.17391 9.14238C1.07354 9.25747 1.00862 9.33228 0.979357 9.36707C0.975114 9.3691 0.958402 9.38877 0.929113 9.42559C0.899846 9.46241 0.885158 9.48083 0.885158 9.48083L0.847491 9.53934C0.826536 9.57196 0.817124 9.59255 0.819191 9.60105C0.821302 9.60956 0.817124 9.6314 0.806658 9.66605C0.796169 9.70085 0.797247 9.72691 0.80978 9.74432V9.7508C0.826602 9.82898 0.863213 9.89186 0.91968 9.93951C0.976147 9.9872 1.04005 10.0068 1.11116 9.99794C1.38327 9.96324 1.6218 9.91573 1.82685 9.85485C2.92343 9.56398 3.88607 9.03905 4.71472 8.2795C5.02854 8.3142 5.33199 8.33162 5.62497 8.33162C6.64617 8.33162 7.58793 8.14608 8.45006 7.77493C9.3122 7.40394 9.9944 6.89835 10.4966 6.2584C10.9989 5.61861 11.25 4.92093 11.25 4.16587C11.25 3.41078 10.9989 2.71315 10.4968 2.0732Z" fill="white"/>
</svg>


