<svg width="26" height="26" viewBox="0 0 26 26" fill="none" xmlns="http://www.w3.org/2000/svg">
<path d="M16.2361 12.0631C16.2148 12.2271 16.1948 12.3728 16.1775 12.4953H14.2605H13.7605V12.9953V20.9432H11.2617V12.9943V12.4943H10.7617H9.55859V10.6514H10.7617H11.2617V10.1514V7.82716C11.2617 7.81973 11.2617 7.81174 11.2617 7.80321C11.2612 7.56297 11.2597 6.89582 11.6115 6.28084C11.9479 5.69278 12.6651 5.05664 14.3465 5.05664H16.4394V7.01682H15.033C14.6794 7.01682 14.3733 7.19243 14.1696 7.38373C13.9758 7.56569 13.7741 7.8585 13.7741 8.19739V10.1415V10.6415H14.2741H16.3934C16.3452 11.1751 16.287 11.6707 16.2361 12.0631Z" fill="#02C88B" stroke="#02C88B"/>
<path d="M24.3918 24.8918H24.8918V24.3918V1.60825V1.10825H24.3918H1.60825H1.10825V1.60825V24.3918V24.8918H1.60825H24.3918ZM25.5 25.5H0.5V0.5H25.5V25.5Z" fill="#02C88B" stroke="#02C88B"/>
</svg>





