<svg width="16" height="16" viewBox="0 0 16 16" fill="none" xmlns="http://www.w3.org/2000/svg">
<path d="M9.60548 5.85696C10.1078 5.85696 10.515 5.44974 10.515 4.9474C10.515 4.44507 10.1078 4.03784 9.60548 4.03784C9.10315 4.03784 8.69592 4.44507 8.69592 4.9474C8.69592 5.44974 9.10315 5.85696 9.60548 5.85696Z" fill="#666666"/>
<path d="M0.0137812 15.5728C0.0137812 15.5728 0.0137812 15.5866 0.0137812 15.5728C0.0137812 15.5866 0.0137812 15.5866 0.0275624 15.5866C0.0413436 15.6141 0.0551249 15.6555 0.0689061 15.683C0.0689061 15.6968 0.0826873 15.6968 0.0826873 15.7106C0.0826873 15.7244 0.0964685 15.7244 0.0964685 15.7382L0.11025 15.7519C0.124031 15.7795 0.151593 15.7933 0.165375 15.8208L0.179156 15.8346C0.192937 15.8484 0.192937 15.8484 0.206718 15.8622C0.2205 15.8622 0.2205 15.876 0.2205 15.876C0.234281 15.8897 0.248062 15.8897 0.261843 15.9035L0.275624 15.9173C0.275624 15.9173 0.289406 15.9173 0.289406 15.9311C0.303187 15.9449 0.330749 15.9449 0.344531 15.9587C0.358312 15.9587 0.358312 15.9587 0.372093 15.9724C0.385874 15.9724 0.399655 15.9862 0.399655 15.9862C0.440999 16 0.482343 16 0.523686 16H15.435C15.7519 16 16 15.7519 16 15.435V11.714V0.56503C16 0.248062 15.7519 0 15.435 0H0.56503C0.248062 0 0 0.248062 0 0.56503V11.6865V15.4074C0 15.4488 0.0137812 15.5039 0.0137812 15.5452C0.0137812 15.559 0.0137812 15.5728 0.0137812 15.5728ZM14.9113 14.8562H2.45306L11.6589 8.83376L14.9113 11.9345V14.8562ZM1.13006 1.13006H14.9113V10.3773L12.1137 7.7037C11.9208 7.52455 11.6314 7.49699 11.4109 7.6348L8.77864 9.37123L6.94574 7.52455C6.7528 7.33161 6.46339 7.30405 6.24289 7.44186L1.13006 10.6667V1.13006ZM1.13006 12.0034L6.46339 8.64083L7.81395 10.0052L1.13006 14.3738V12.0034Z" fill="#666666"/>
</svg>
