<svg width="35" height="16" viewBox="0 0 35 16" fill="none" xmlns="http://www.w3.org/2000/svg">
<path d="M6.2098 16C8.17235 15.9977 9.83573 14.5377 10.1161 12.5714H25.4486C25.7583 14.7554 27.7585 16.2714 29.9159 15.9577C31.6501 15.7058 33.0124 14.3267 33.2613 12.5714H33.8709C34.1407 12.5714 34.3727 12.3781 34.4249 12.1104L34.9892 9.20971C35.0023 9.14319 35.0035 9.07481 34.9927 9.00806C34.6604 6.55933 32.6976 4.66999 30.265 4.45716L24.8867 3.93476L21.537 1.88563C19.7574 0.654754 17.6519 -0.00255107 15.4966 7.44076e-06H13.0127C10.9212 0.00256595 8.83366 0.184918 6.77253 0.545203C6.10365 0.659405 5.54988 0.769654 5.02805 0.888043L3.83136 1.15715C3.57239 1.21437 3.38765 1.44603 3.38696 1.71421V2.50386L0.903275 3.76125C0.348127 4.03943 -0.00228656 4.61347 1.12321e-05 5.24053V9.26577C-0.00136745 9.70467 0.171197 10.1261 0.478642 10.4355L2.27046 12.2492C2.40029 14.3556 4.12478 15.9974 6.2098 16ZM6.2098 14.857C4.65075 14.857 3.38719 13.578 3.38719 11.9999C3.38719 10.422 4.65075 9.14273 6.2098 9.14273C7.76863 9.14273 9.03242 10.422 9.03242 11.9999C9.03035 13.5771 7.76794 14.8552 6.2098 14.857ZM29.355 14.857C27.796 14.857 26.5324 13.578 26.5324 11.9999C26.5324 10.422 27.796 9.14273 29.355 9.14273C30.9139 9.14273 32.1777 10.422 32.1777 11.9999C32.1756 13.5771 30.9132 14.8552 29.355 14.857ZM30.1634 5.59361H30.1685C30.8606 5.65083 31.526 5.88923 32.0995 6.2858H31.6129V7.42853H33.1935C33.5255 7.93162 33.7526 8.49775 33.8608 9.09249L33.407 11.4286H33.2663C33.2601 11.3844 33.2493 11.3417 33.2415 11.2982C33.2319 11.244 33.2229 11.1902 33.2112 11.1372C33.1953 11.0639 33.176 10.9921 33.1547 10.9204C33.1404 10.8709 33.128 10.8204 33.1124 10.7713C33.088 10.696 33.0605 10.6229 33.0315 10.5492C33.0152 10.5069 33.0005 10.4634 32.9826 10.4211C32.9463 10.3359 32.9056 10.2538 32.864 10.1719C32.8493 10.144 32.8373 10.115 32.8222 10.0868C32.7634 9.9775 32.6999 9.8719 32.6312 9.7698C32.6195 9.75096 32.6053 9.73421 32.5924 9.71607C32.5359 9.63326 32.4796 9.55209 32.4134 9.47371C32.3874 9.44114 32.3569 9.41091 32.3309 9.37904C32.2785 9.31787 32.2259 9.25716 32.1701 9.20018C32.1367 9.16575 32.1018 9.13366 32.0674 9.10063C32.0138 9.04923 31.9596 8.99782 31.9031 8.94921C31.8647 8.91665 31.8259 8.88571 31.7863 8.85501C31.7298 8.80989 31.6733 8.76639 31.617 8.72453C31.5745 8.69429 31.5315 8.66754 31.4881 8.63777C31.4288 8.59893 31.3691 8.56171 31.3075 8.52357C31.2617 8.49705 31.216 8.47193 31.1698 8.44751C31.1071 8.41425 31.0428 8.38355 30.9784 8.35378C30.9304 8.33214 30.8831 8.31028 30.8344 8.29028C30.7673 8.26283 30.699 8.23818 30.6301 8.21492C30.5816 8.19771 30.5336 8.18003 30.4839 8.16514C30.4111 8.14351 30.3371 8.12584 30.2631 8.10793C30.2151 8.09653 30.1678 8.08397 30.1193 8.07443C30.0363 8.05769 29.9499 8.04629 29.8674 8.03489C29.8256 8.02978 29.7852 8.02187 29.7427 8.01768C29.6147 8.00745 29.4853 8 29.3548 8C29.2245 8 29.0952 8.00745 28.9681 8.02001C28.9258 8.02396 28.8851 8.0321 28.8435 8.03722C28.7588 8.04862 28.674 8.06001 28.5917 8.07653C28.543 8.0863 28.4957 8.09886 28.4483 8.11025C28.3739 8.12793 28.2999 8.1463 28.2271 8.16747C28.1774 8.18236 28.1294 8.20003 28.0809 8.21724C28.012 8.2405 27.9437 8.26516 27.8764 8.2926C27.8279 8.31261 27.7806 8.33424 27.7326 8.3561C27.6682 8.38564 27.6037 8.41658 27.5412 8.4496C27.4947 8.47426 27.449 8.49938 27.4035 8.52566C27.3419 8.56125 27.282 8.59823 27.2222 8.6401C27.1793 8.66801 27.1365 8.69708 27.094 8.72639C27.0377 8.76802 26.9812 8.81198 26.9247 8.85711C26.8851 8.88804 26.8463 8.91874 26.8079 8.9513C26.7514 8.99992 26.6949 9.05132 26.6436 9.10295C26.6092 9.13598 26.5742 9.16808 26.5409 9.20227C26.4844 9.25949 26.4325 9.31996 26.3801 9.38113C26.353 9.41323 26.3236 9.44347 26.2976 9.47603C26.2337 9.55488 26.174 9.63722 26.1163 9.72049C26.1043 9.7384 26.0915 9.75421 26.0795 9.77142C26.0115 9.87423 25.9479 9.98006 25.8888 10.0891C25.8736 10.1166 25.8617 10.1464 25.847 10.1743C25.8054 10.2559 25.7647 10.3382 25.7284 10.4234C25.7105 10.4657 25.6958 10.509 25.6795 10.5513C25.6505 10.625 25.623 10.6983 25.5986 10.7737C25.5827 10.8227 25.5703 10.8725 25.5563 10.9223C25.5366 10.9942 25.5175 11.0663 25.4998 11.14C25.4885 11.1926 25.4796 11.2461 25.4699 11.3C25.4621 11.3433 25.4513 11.3861 25.4451 11.4307H16.2932L16.0386 9.71653H24.2744V8.57125H15.8697L15.2137 4.14735L24.679 5.07423L30.1634 5.59361ZM15.4943 1.14296C17.4341 1.14203 19.3281 1.73654 20.9272 2.84809L22.29 3.68124L15.0405 2.97649L14.7684 1.14296H15.4943ZM13.0104 1.14296H13.6257L13.881 2.86391L8.24197 2.31592L7.78081 1.53884C9.5122 1.27694 11.2604 1.14459 13.011 1.14296H13.0104ZM1.12915 6.2858H3.38719V5.14285H1.1427C1.17051 4.98747 1.26908 4.85443 1.40856 4.78349L4.20406 3.37143C4.39638 3.2742 4.51725 3.07464 4.5161 2.85717V2.17148L5.27092 2.00006C5.67281 1.90982 6.09606 1.82469 6.58228 1.73607L7.41936 3.1486C7.51151 3.30351 7.67074 3.40538 7.84836 3.42283L14.0563 4.03385L14.7277 8.57148H10.7257V9.71444H14.8964L15.151 11.4286H10.1211C10.1149 11.3847 10.1043 11.3417 10.0963 11.2984C10.0869 11.244 10.0777 11.1902 10.066 11.1372C10.0501 11.0639 10.0308 10.9921 10.0094 10.9207C9.99542 10.8709 9.98301 10.8206 9.96716 10.7716C9.9428 10.696 9.91523 10.6229 9.88628 10.5492C9.86996 10.5069 9.85526 10.4634 9.83733 10.4213C9.80103 10.3362 9.76036 10.2538 9.71877 10.1722C9.70406 10.144 9.69211 10.115 9.67695 10.0871C9.61835 9.9775 9.55471 9.8719 9.486 9.7698C9.47428 9.75096 9.46004 9.73444 9.44717 9.71607C9.39064 9.63326 9.33435 9.55209 9.26817 9.47394C9.2422 9.44138 9.21187 9.41091 9.18591 9.37904C9.13329 9.31787 9.0809 9.25716 9.02483 9.20018C8.99174 9.16575 8.95659 9.13389 8.92212 9.10063C8.86583 9.04923 8.81436 8.99782 8.75783 8.94921C8.71946 8.91665 8.68062 8.88571 8.6411 8.85501C8.58458 8.80989 8.52828 8.76639 8.47175 8.72476C8.42947 8.69429 8.38651 8.66754 8.34308 8.63777C8.28655 8.59893 8.22382 8.56171 8.16224 8.52357C8.11652 8.49728 8.07079 8.47217 8.0246 8.44751C7.96187 8.41425 7.89753 8.38355 7.8332 8.35378C7.78517 8.33214 7.73784 8.31028 7.68935 8.29028C7.62203 8.26283 7.55378 8.23841 7.48485 8.21492C7.43637 8.19771 7.38834 8.18003 7.33871 8.16514C7.26587 8.14351 7.19188 8.12584 7.11812 8.10816C7.0701 8.09676 7.02253 8.0842 6.97405 8.07443C6.8911 8.05792 6.8047 8.04652 6.72221 8.03489C6.68062 8.02978 6.63995 8.02187 6.59767 8.01791C6.46945 8.00745 6.34009 8 6.2098 8C6.01472 8.0014 5.82033 8.01768 5.62777 8.04862C5.5894 8.05443 5.55034 8.05955 5.51196 8.06653C5.33113 8.09886 5.15305 8.14398 4.97842 8.20189C4.94694 8.21213 4.91637 8.22469 4.88535 8.23608C4.72589 8.29353 4.5701 8.36145 4.41913 8.4389C4.39868 8.44984 4.37685 8.45844 4.3564 8.46984C4.29988 8.50124 4.24358 8.53729 4.18705 8.57148H1.12892V6.2858H1.12915ZM2.97175 9.71421C2.8695 9.86213 2.77736 10.017 2.69624 10.1778C2.67993 10.2103 2.66454 10.2434 2.64868 10.2771C2.56757 10.4452 2.49817 10.619 2.44165 10.7972V10.8034L1.36283 9.71421H2.97175Z" fill="#00AE79"/>
<path d="M24.8386 6.28589H25.9678V7.42861H24.8386V6.28589Z" fill="#00AE79"/>
<path d="M16.9355 5.71436H19.1936V6.85731H16.9355V5.71436Z" fill="#00AE79"/>
<path d="M6.20982 10.2856C5.27439 10.2856 4.51611 11.0532 4.51611 11.9998C4.51611 12.9467 5.27439 13.7143 6.20982 13.7143C7.14502 13.7143 7.90329 12.9467 7.90329 11.9998C7.90329 11.0532 7.14502 10.2856 6.20982 10.2856ZM6.20982 12.5713C5.89801 12.5713 5.64525 12.3155 5.64525 12.0001C5.64525 11.6845 5.89801 11.4286 6.20982 11.4286C6.5214 11.4286 6.77416 11.6845 6.77416 12.0001C6.77416 12.3155 6.52163 12.5713 6.20982 12.5713Z" fill="#00AE79"/>
<path d="M29.3551 10.2856C28.4196 10.2856 27.6614 11.0532 27.6614 11.9998C27.6614 12.9467 28.4196 13.7143 29.3551 13.7143C30.2903 13.7143 31.0486 12.9467 31.0486 11.9998C31.0486 11.0532 30.2903 10.2856 29.3551 10.2856ZM29.3551 12.5713C29.0433 12.5713 28.7905 12.3155 28.7905 12.0001C28.7905 11.6845 29.0433 11.4286 29.3551 11.4286C29.6669 11.4286 29.9194 11.6845 29.9194 12.0001C29.9194 12.3155 29.6667 12.5713 29.3551 12.5713Z" fill="#00AE79"/>
</svg>
