<svg width="16" height="10" viewBox="0 0 16 10" fill="none" xmlns="http://www.w3.org/2000/svg">
<path d="M15.3823 4.40115C14.572 3.0759 13.4825 2.01106 12.1139 1.20667C10.7452 0.402255 9.29996 0 7.77793 0C6.2559 0 4.81058 0.402103 3.44191 1.20667C2.07321 2.01106 0.983746 3.0759 0.17355 4.40115C0.0578602 4.60367 0 4.80334 0 5.00015C0 5.19696 0.0578602 5.39663 0.17355 5.5991C0.983746 6.92441 2.07321 7.98933 3.44191 8.79354C4.81058 9.59805 6.2559 10 7.77793 10C9.29999 10 10.7453 9.59939 12.1139 8.79792C13.4825 7.99642 14.5722 6.93009 15.3823 5.5991C15.498 5.39663 15.5559 5.19705 15.5559 5.00015C15.5559 4.80334 15.498 4.60367 15.3823 4.40115ZM5.91579 2.02693C6.43371 1.50902 7.05436 1.24997 7.77784 1.24997C7.89353 1.24997 7.99198 1.29059 8.07304 1.37156C8.15398 1.45256 8.19466 1.55098 8.19466 1.6667C8.19466 1.78251 8.15398 1.88087 8.07322 1.96174C7.99228 2.04283 7.89377 2.08333 7.77805 2.08333C7.28039 2.08333 6.8549 2.25992 6.50193 2.61286C6.14884 2.96601 5.9724 3.39132 5.9724 3.88898C5.9724 4.00485 5.93178 4.10315 5.85082 4.18421C5.76973 4.26533 5.6714 4.3058 5.55568 4.3058C5.43987 4.3058 5.34151 4.26524 5.26045 4.18421C5.17936 4.10315 5.13886 4.00473 5.13886 3.88898C5.13886 3.16565 5.39791 2.54488 5.91579 2.02693ZM11.5498 7.83454C10.3894 8.5375 9.13216 8.88919 7.77793 8.88919C6.42373 8.88919 5.1665 8.53771 4.00619 7.83454C2.84588 7.13137 1.88087 6.18661 1.1112 5.00015C1.99084 3.63434 3.09329 2.61283 4.41854 1.93587C4.06554 2.53764 3.88898 3.18876 3.88898 3.88895C3.88898 4.95968 4.26956 5.87526 5.0305 6.63638C5.79144 7.39751 6.70735 7.7779 7.77793 7.7779C8.8486 7.7779 9.76424 7.39729 10.5254 6.63638C11.2865 5.87547 11.6669 4.95968 11.6669 3.88895C11.6669 3.18876 11.4903 2.53755 11.1373 1.93587C12.4625 2.61283 13.565 3.63443 14.4446 5.00015C13.6751 6.18661 12.7101 7.13137 11.5498 7.83454Z" fill="#A9A9A9"/>
</svg>
