<svg width="24" height="16" viewBox="0 0 24 16" fill="none" xmlns="http://www.w3.org/2000/svg">
<path d="M21.5 0H2.49998C1.122 0 0 1.122 0 2.50003V13.5C0 14.878 1.122 16 2.49998 16H21.4999C22.8779 16 23.9999 14.878 23.9999 13.5V2.50003C24 1.122 22.878 0 21.5 0ZM23 13.5C23 14.327 22.327 15 21.5 15H2.49998C1.67297 15 0.999982 14.327 0.999982 13.5V2.50003C0.999982 1.67301 1.67297 1.00003 2.49998 1.00003H21.4999C22.3269 1.00003 22.9999 1.67301 22.9999 2.50003V13.5H23Z" fill="#00AE79"/>
<path d="M23.4999 3H0.500015C0.224015 3 0 3.22402 0 3.50002V6.50001C0 6.77601 0.224015 7.00002 0.500015 7.00002H23.5C23.776 7.00002 24 6.77601 24 6.50001V3.50002C24 3.22402 23.7759 3 23.4999 3ZM23 5.99999H0.999982V3.99998H22.9999V5.99999H23Z" fill="#00AE79"/>
<path d="M9.5 10H3.50001C3.22402 10 3 10.224 3 10.5C3 10.776 3.22402 11 3.50001 11H9.5C9.776 11 10 10.776 10 10.5C10 10.224 9.776 10 9.5 10Z" fill="#00AE79"/>
<path d="M9.5 12H3.50001C3.22402 12 3 12.224 3 12.5C3 12.776 3.22402 13 3.50001 13H9.5C9.776 13 10 12.776 10 12.5C9.99997 12.224 9.776 12 9.5 12Z" fill="#00AE79"/>
<path d="M19.5 9H18.5C17.673 9 17 9.67298 17 10.5V11.5C17 12.327 17.673 13 18.5 13H19.5C20.327 13 21 12.327 21 11.5V10.5C21 9.67303 20.327 9 19.5 9ZM20 11.5C20 11.776 19.776 12 19.5 12H18.5C18.224 12 18 11.776 18 11.5V10.5C18 10.224 18.224 10 18.5 10H19.5C19.776 10 20 10.224 20 10.5V11.5Z" fill="#00AE79"/>
</svg>
