<svg width="26" height="20" viewBox="0 0 26 20" fill="none" xmlns="http://www.w3.org/2000/svg">
<path d="M22.826 0.106934H3.17939C1.42562 0.106934 0 1.53255 0 3.28633V16.714C0 18.4678 1.42562 19.8934 3.17939 19.8934H22.8206C24.5744 19.8934 26 18.4678 26 16.714V3.2917C26.0054 1.53793 24.5798 0.106934 22.826 0.106934ZM24.5529 16.714C24.5529 17.6662 23.7782 18.4409 22.826 18.4409H3.17939C2.22719 18.4409 1.45251 17.6662 1.45251 16.714V3.2917C1.45251 2.3395 2.22719 1.56483 3.17939 1.56483H22.8206C23.7728 1.56483 24.5475 2.3395 24.5475 3.2917V16.714H24.5529Z" fill="white"/>
<path d="M16.398 9.83352L22.7568 4.13105C23.0526 3.86207 23.0795 3.4048 22.8106 3.10353C22.5416 2.80765 22.0843 2.78075 21.783 3.04974L13.0141 10.9202L11.3034 9.39238C11.298 9.387 11.2927 9.38162 11.2927 9.37624C11.255 9.33859 11.2173 9.30631 11.1743 9.27403L4.21299 3.04436C3.91173 2.77537 3.45446 2.80227 3.18547 3.10353C2.91649 3.4048 2.94339 3.86207 3.24465 4.13105L9.67875 9.88193L3.27155 15.8803C2.98104 16.1546 2.9649 16.6119 3.23927 16.9078C3.38452 17.0584 3.57819 17.1391 3.77186 17.1391C3.94939 17.1391 4.12692 17.0746 4.26679 16.9455L10.7708 10.861L12.5354 12.4373C12.6752 12.561 12.8474 12.6202 13.0195 12.6202C13.1917 12.6202 13.3692 12.5556 13.5037 12.4319L15.3167 10.8072L21.783 16.9508C21.9229 17.0853 22.1058 17.1499 22.2833 17.1499C22.477 17.1499 22.6653 17.0746 22.8106 16.9239C23.0849 16.6334 23.0742 16.1708 22.7837 15.8964L16.398 9.83352Z" fill="white"/>
</svg>






