<svg width="" height="" viewBox="0 0 13 14" fill="none" xmlns="http://www.w3.org/2000/svg">
<path d="M0.790017 6.14065C0.380466 6.36134 0.104236 6.77444 0.104236 7.24666C0.104236 7.58731 0.246332 7.9078 0.504472 8.1492C0.762804 8.39031 1.10622 8.52311 1.47147 8.52311L5.05214 8.52311C5.37855 8.52311 5.67202 8.6803 5.83715 8.94364C6.00062 9.20434 6.00403 9.51656 5.84623 9.77881C5.27433 10.7287 5.03444 11.8069 5.09308 12.3812C5.19358 13.3656 5.89343 14.0306 6.79472 13.9989L6.82015 13.9982C7.42704 13.9765 7.91112 13.5309 7.94622 12.9617C8.02283 11.7332 9.08918 10.48 10.0826 9.40201C10.3956 9.0627 10.6571 8.68655 10.8597 8.28427C10.9168 8.1712 11.0066 8.07614 11.1199 8.00911C11.2324 7.94225 11.3626 7.9069 11.4964 7.9069H12.6413C12.7801 7.9069 12.8926 7.80191 12.8926 7.67239L12.8926 0.72481C12.8926 0.595288 12.7801 0.490301 12.6413 0.490301C11.9359 0.490301 11.235 0.396677 10.558 0.211993C10.0423 0.0713243 9.50843 -1.90735e-06 8.97116 -1.90735e-06L2.64694 -1.90735e-06C2.32158 -1.90735e-06 2.01577 0.118191 1.78566 0.332964C1.55079 0.552645 1.42427 0.844444 1.42945 1.15454C1.43397 1.4248 1.54325 1.67298 1.7213 1.8665C1.17375 2.03315 0.77699 2.51425 0.77699 3.08017C0.77699 3.4284 0.927204 3.74452 1.17035 3.97502C0.662029 4.16129 0.301223 4.62382 0.301223 5.16351C0.301223 5.55528 0.491367 5.90636 0.790017 6.14065ZM1.66857 4.35633H2.1443C2.28308 4.35633 2.39556 4.25134 2.39556 4.12182C2.39556 3.9923 2.28308 3.88731 2.1443 3.88731C1.66745 3.88731 1.27951 3.52524 1.27951 3.08014C1.27951 2.63504 1.66745 2.273 2.14438 2.273L2.66874 2.27289C2.80747 2.27285 2.91996 2.16786 2.91996 2.03834C2.91996 1.90882 2.80743 1.80387 2.6687 1.80387C2.2685 1.80387 1.938 1.50929 1.93193 1.14721C1.92892 0.964946 2.00329 0.793429 2.14121 0.664414C2.27623 0.538393 2.45582 0.469015 2.64698 0.469015L8.97124 0.469015C9.46077 0.469015 9.94721 0.533992 10.4171 0.662178C11.0594 0.83741 11.722 0.935866 12.3901 0.955637L12.3901 7.43784H11.4964C11.2669 7.43784 11.0434 7.49856 10.8505 7.61318C10.6569 7.7277 10.503 7.89062 10.4051 8.08454C10.2218 8.44854 9.9852 8.78883 9.70175 9.09603C8.65465 10.2324 7.53037 11.5598 7.44463 12.9346C7.42449 13.2614 7.14779 13.5171 6.80253 13.5294L6.77717 13.5302C6.25068 13.5488 5.68021 13.187 5.59343 12.3366C5.55358 11.9464 5.70596 10.9693 6.28447 10.0085C6.53063 9.59936 6.52556 9.11266 6.27094 8.70668C6.01466 8.29802 5.55907 8.05406 5.05226 8.05406L1.47159 8.05406C1.24058 8.05406 1.02334 7.97007 0.860099 7.81767C0.69678 7.66499 0.606869 7.4622 0.606869 7.24663C0.606869 6.80164 0.994775 6.4396 1.47155 6.43956L1.66749 6.43963C1.66768 6.43963 1.66788 6.43963 1.66803 6.43963H1.66853C1.66857 6.43963 1.66861 6.43963 1.66865 6.43963C1.80738 6.43963 1.91987 6.33468 1.91991 6.20516C1.91995 6.07567 1.8075 5.97065 1.66877 5.97062H1.66846C1.19168 5.97054 0.803817 5.60846 0.803817 5.16347C0.80374 4.71841 1.19168 4.35633 1.66857 4.35633Z" fill="#333333"/>
</svg>

