<svg width="13" height="14" viewBox="0 0 13 14" fill="none" xmlns="http://www.w3.org/2000/svg">
<path d="M12.21 7.85935C12.6195 7.63866 12.8958 7.22556 12.8958 6.75334C12.8958 6.41269 12.7537 6.0922 12.4955 5.8508C12.2372 5.60969 11.8938 5.47689 11.5285 5.47689H7.94786C7.62145 5.47689 7.32798 5.3197 7.16285 5.05636C6.99938 4.79566 6.99597 4.48344 7.15377 4.22119C7.72567 3.27132 7.96556 2.19305 7.90692 1.61883C7.80642 0.634401 7.10657 -0.030592 6.20528 0.0010847L6.17985 0.00184234C5.57296 0.0234532 5.08888 0.469091 5.05378 1.0383C4.97717 2.26683 3.91082 3.51997 2.91742 4.59799C2.60436 4.9373 2.34285 5.31345 2.1403 5.71573C2.08321 5.8288 1.99337 5.92386 1.88011 5.99089C1.76759 6.05775 1.6374 6.0931 1.50365 6.0931H0.358681C0.219909 6.0931 0.107422 6.19809 0.107422 6.32761V13.2752C0.107422 13.4047 0.219909 13.5097 0.358681 13.5097C1.06406 13.5097 1.765 13.6033 2.44204 13.788C2.9577 13.9287 3.49157 14 4.02884 14H10.3531C10.6784 14 10.9842 13.8818 11.2143 13.667C11.4492 13.4474 11.5757 13.1556 11.5705 12.8455C11.566 12.5752 11.4567 12.327 11.2787 12.1335C11.8263 11.9669 12.223 11.4857 12.223 10.9198C12.223 10.5716 12.0728 10.2555 11.8297 10.025C12.338 9.83871 12.6988 9.37618 12.6988 8.83649C12.6988 8.44472 12.5086 8.09364 12.21 7.85935ZM11.3314 9.64367H10.8557C10.7169 9.64367 10.6044 9.74866 10.6044 9.87818C10.6044 10.0077 10.7169 10.1127 10.8557 10.1127C11.3325 10.1127 11.7205 10.4748 11.7205 10.9199C11.7205 11.365 11.3325 11.727 10.8556 11.727L10.3313 11.7271C10.1925 11.7271 10.08 11.8321 10.08 11.9617C10.08 12.0912 10.1926 12.1961 10.3313 12.1961C10.7315 12.1961 11.062 12.4907 11.0681 12.8528C11.0711 13.0351 10.9967 13.2066 10.8588 13.3356C10.7238 13.4616 10.5442 13.531 10.353 13.531H4.02876C3.53923 13.531 3.05279 13.466 2.58294 13.3378C1.94057 13.1626 1.27802 13.0641 0.609901 13.0444V6.56216H1.50361C1.73314 6.56216 1.95661 6.50144 2.14954 6.38682C2.34308 6.2723 2.49705 6.10938 2.59492 5.91546C2.77823 5.55146 3.0148 5.21117 3.29825 4.90397C4.34535 3.76765 5.46963 2.44022 5.55537 1.06543C5.57551 0.738631 5.85221 0.482909 6.19747 0.470606L6.22283 0.469849C6.74932 0.45116 7.31979 0.812988 7.40657 1.66335C7.44642 2.05357 7.29404 3.03068 6.71553 3.99151C6.46937 4.40064 6.47444 4.88734 6.72906 5.29332C6.98534 5.70198 7.44093 5.94594 7.94774 5.94594H11.5284C11.7594 5.94594 11.9767 6.02993 12.1399 6.18233C12.3032 6.33501 12.3931 6.5378 12.3931 6.75337C12.3931 7.19836 12.0052 7.5604 11.5285 7.56044L11.3325 7.56037C11.3323 7.56037 11.3321 7.56037 11.332 7.56037H11.3315C11.3314 7.56037 11.3314 7.56037 11.3313 7.56037C11.1926 7.56037 11.0801 7.66532 11.0801 7.79484C11.0801 7.92433 11.1925 8.02935 11.3312 8.02938H11.3315C11.8083 8.02946 12.1962 8.39154 12.1962 8.83653C12.1963 9.28159 11.8083 9.64367 11.3314 9.64367Z" fill="#333333"/>
</svg>


