<svg width="194" height="184" viewBox="0 0 194 184" fill="none" xmlns="http://www.w3.org/2000/svg">
<rect x="181.942" y="183.305" width="257.305" height="47.1821" transform="rotate(-135 181.942 183.305)" fill="#ED8A19"/>
<path d="m 72.573224,29.99337 -9.06228,9.062282 1.59099,1.59096 3.48745,-3.48742 2.55831,2.55831 c 1.83282,1.83281 4.03476,1.84551 5.75306,0.12728 1.8964,-1.89646 1.4764,-4.04748 -0.3946,-5.91848 z m 0.26729,2.914692 2.07464,2.07465 c 1.0055,1.00551 1.5655,2.17648 0.3946,3.34745 -1.0692,1.06914 -2.18923,0.78913 -3.22019,-0.24183 l -2.21466,-2.21466 z m 6.87294,18.25175 -1.3873,-1.3874 c -1.1328,0.5473 -1.9601,0.4328 -2.762,-0.3691 -1.12,-1.12 -1.0182,-2.5201 0.2673,-3.882 l 4.8494,4.8494 0.1527,-0.1528 c 2.2656,-2.2655 2.4819,-4.8748 0.56,-6.7967 -1.8455,-1.8455 -4.6711,-1.6928 -6.7331,0.3691 -1.96005,1.9601 -2.21461,4.633 -0.1909,6.6567 1.4765,1.4765 3.4748,1.8201 5.2439,0.7128 z m 0.4837,-3.2074 -3.3729,-3.3729 c 1.2982,-1.0183 2.5201,-1.0437 3.4747,-0.0891 0.9546,0.9546 0.9164,2.2655 -0.1018,3.462 z m 4.7941,12.5836 1.0819,-6.784 5.193,-0.0764 -1.7692,-1.7691 -5.5366,0.2927 2.9147,-2.9147 -1.451,-1.451 -6.5676,6.5676 1.451,1.451 2.0364,-2.0364 1.7692,-0.0382 -0.8782,5.002 z m 10.3528,-3.1643 c -2.0364,-2.0365 -4.7093,-1.9855 -6.8221,0.1273 -2.1383,2.1383 -2.1892,4.7857 -0.1401,6.8349 2.0111,2.011 4.633,1.9346 6.7713,-0.2037 2.1256,-2.1255 2.2019,-4.7475 0.1909,-6.7585 z m -1.1709,1.1201 c 1.1455,1.1455 0.9673,2.7237 -0.471,4.162 -1.4764,1.4764 -3.0547,1.6801 -4.2002,0.5346 -1.171,-1.171 -0.9928,-2.7493 0.4837,-4.2257 1.4382,-1.4383 3.0419,-1.6164 4.1875,-0.4709 z m 0.3153,11.5413 4.3656,-4.3657 0.0255,0.0255 -2.8001,5.9312 1.4637,1.4637 5.931196,-2.8001 0.0254,0.0254 -4.365596,4.3657 1.399996,1.4001 6.5676,-6.5676 -1.9092,-1.9092 -6.987596,3.4492 -0.0254,-0.0254 3.385596,-7.0513 -1.909196,-1.9092 -6.5676,6.5676 z m 15.491096,11.3928 -1.3873,-1.3873 c -1.1328,0.5473 -1.9601,0.4327 -2.762,-0.3692 -1.12,-1.12 -1.0182,-2.5201 0.2673,-3.882 l 4.8494,4.8494 0.1527,-0.1528 c 2.2656,-2.2655 2.4819,-4.8748 0.56,-6.7967 -1.8455,-1.8455 -4.6711,-1.6928 -6.733,0.3691 -1.9601,1.9601 -2.2147,4.633 -0.191,6.6567 1.4765,1.4765 3.4748,1.8201 5.2439,0.7128 z m 0.4837,-3.2074 -3.3729,-3.3729 c 1.2982,-1.0183 2.5201,-1.0437 3.4747,-0.0891 0.9546,0.9546 0.9164,2.2655 -0.1018,3.462 z m 0.1103,7.8997 2.851,-2.851 2.8765,2.8765 -2.851,2.851 1.451,1.451 6.5676,-6.5676 -1.451,-1.451 -2.571,2.5711 -2.8766,-2.8765 2.5711,-2.5711 -1.451,-1.451 -6.5676,6.5676 z m 10.516,14.690798 3.2329,-3.232898 -0.8782,-0.8782 5.4221,-5.4221 -4.9385,-4.9384 -0.7382,0.7382 c -2.1637,2.1637 -3.8438,3.2583 -5.4602,3.9075 l -0.8274,-0.8273 -3.2329,3.2329 1.3747,1.3746 2.0873,-2.0874 4.6712,4.6711 -2.0874,2.0874 z m 0.9292,-5.536598 -2.8002,-2.8002 c 0.9164,-0.3818 3.0165,-1.6673 4.5312,-3.1819 l 0.4454,-0.4455 2.1256,2.1255 z m 14.403,3.5588 -1.5146,-1.5146 -6.4913,3.181998 3.0802,-6.593098 -1.591,-1.591 -3.8566,8.896898 c -0.7636,0.3818 -1.871,1.1073 -2.6092,0.3691 -0.1782,-0.1782 -0.3564,-0.3819 -0.6746,-0.8528 l -1.2218,1.2219 c 0.4327,0.56 0.6236,0.7764 0.9291,1.0818 1.6164,1.6165 3.3474,0.5983 5.0784,-0.1909 z m 2.0216,11.058498 -1.3873,-1.3873 c -1.1328,0.5473 -1.9601,0.4327 -2.762,-0.3691 -1.12,-1.1201 -1.0182,-2.5202 0.2673,-3.8821 l 4.8494,4.8494 0.1527,-0.1528 c 2.2656,-2.2655 2.482,-4.8748 0.56,-6.7967 -1.8455,-1.8455 -4.6711,-1.6928 -6.733,0.3691 -1.9601,1.9601 -2.2147,4.633 -0.191,6.6567 1.4765,1.4765 3.4748,1.8201 5.2439,0.7128 z m 0.4837,-3.2074 -3.3729,-3.3729 c 1.2983,-1.0183 2.5201,-1.0437 3.4747,-0.0891 0.9546,0.9546 0.9164,2.2655 -0.1018,3.462 z m 0.0594,7.8488 4.3656,-4.3657 0.0255,0.0255 -2.8001,5.9312 1.4637,1.4637 5.9312,-2.8001 0.0254,0.0254 -4.3656,4.3657 1.4,1.4001 6.5676,-6.5676 -1.9091,-1.9092 -6.9877,3.4493 -0.0254,-0.0255 3.3856,-7.0513 -1.9092,-1.9092 -6.5676,6.5676 z" fill="white"/>
</svg>
