<svg width="15" height="15" viewBox="0 0 15 15" fill="none" xmlns="http://www.w3.org/2000/svg">
<path d="M14.6435 14.5205L10.4354 10.1442C11.5088 9.0678 12.1737 7.58383 12.1737 5.94721C12.1737 2.66775 9.50597 0 6.22651 0C2.94705 0 0.279297 2.66775 0.279297 5.94721C0.279297 9.22667 2.94705 11.8944 6.22651 11.8944C7.66602 11.8944 8.98715 11.3798 10.0169 10.526L14.2351 14.9131C14.2906 14.9711 14.3648 15 14.4393 15C14.5101 15 14.5806 14.9737 14.6356 14.921C14.7483 14.8125 14.7517 14.6333 14.6435 14.5205ZM6.22651 11.328C3.25942 11.328 0.845698 8.9143 0.845698 5.94721C0.845698 2.98012 3.25942 0.566401 6.22651 0.566401C9.1936 0.566401 11.6073 2.98012 11.6073 5.94721C11.6073 8.9143 9.19332 11.328 6.22651 11.328Z" fill="#ADADAD"/>
</svg>


