<svg width="30" height="30" viewBox="0 0 30 30" fill="none" xmlns="http://www.w3.org/2000/svg">
<g clip-path="url(#clip0)">
<path d="M25.695 24.3105H13.2812V30.0002H25.695V24.3105Z" fill="#C8D2D6"/>
<path d="M21.5571 30.0002H13.2812V24.3105H18.1568C20.0349 24.3105 21.5571 25.8328 21.5571 27.7109V30.0002Z" fill="#E7ECED"/>
<path d="M18.1954 28.4485C18.9096 28.4485 19.4886 27.8696 19.4886 27.1554C19.4886 26.4412 18.9096 25.8623 18.1954 25.8623C17.4813 25.8623 16.9023 26.4412 16.9023 27.1554C16.9023 27.8696 17.4813 28.4485 18.1954 28.4485Z" fill="#7383BF"/>
<path d="M17.3687 5.53589C18.0065 5.25554 18.4529 4.62037 18.4529 3.87968C18.4529 2.87985 17.6424 2.06934 16.6425 2.06934C15.9013 2.06934 15.2662 2.51572 14.9863 3.15347L17.3687 5.53589Z" fill="#FBCE9D"/>
<path d="M19.9566 8.12183C20.5944 7.84148 21.0408 7.20631 21.0408 6.46562C21.0408 5.46579 20.2303 4.65527 19.2304 4.65527C18.4892 4.65527 17.854 5.10165 17.5742 5.73941L19.9566 8.12183Z" fill="#FBCE9D"/>
<path d="M22.5426 10.7078C23.1803 10.4274 23.6267 9.79225 23.6267 9.05156C23.6267 8.05173 22.8162 7.24121 21.8164 7.24121C21.0752 7.24121 20.44 7.68759 20.1602 8.32535L22.5426 10.7078Z" fill="#FBCE9D"/>
<path d="M25.1285 13.2937C25.7663 13.0134 26.2126 12.3782 26.2126 11.6375C26.2126 10.6377 25.4021 9.82715 24.4023 9.82715C23.6611 9.82715 23.0259 10.2735 22.7461 10.9113L25.1285 13.2937Z" fill="#FBCE9D"/>
<path d="M14.5746 17.0689H9.40214C8.40645 17.0689 7.5918 16.2543 7.5918 15.2586C7.5918 14.2629 8.40645 13.4482 9.40214 13.4482H14.5746C15.5702 13.4482 16.3849 14.2629 16.3849 15.2586C16.3849 16.2543 15.5702 17.0689 14.5746 17.0689Z" fill="#FBCE9D"/>
<path d="M25.249 16.3252L19.4972 22.0769C19.0338 22.5404 18.2822 22.5404 17.8193 22.0769L12.8114 17.0685H9.40327C9.10431 17.2149 8.28862 16.6867 8.60155 16.9552L14.194 22.5259C14.2322 22.5642 14.2767 22.5916 14.3171 22.6262V24.3099H24.6619V21.9771C25.6028 21.269 26.2136 20.1471 26.2136 18.8788C26.2131 17.8997 25.8474 17.008 25.249 16.3252Z" fill="#F7B563"/>
<path d="M13.328 1.49414L5.28125 9.54086L9.20815 13.4678C9.2728 13.461 9.33539 13.4481 9.40108 13.4481H14.5735C15.5692 13.4481 16.3838 14.2628 16.3838 15.2585C16.3838 16.2541 15.5692 17.0688 14.5735 17.0688H12.8092L16.0962 20.3559L24.1425 12.3091L13.328 1.49414Z" fill="#424A60"/>
<path d="M13.3301 1.49431L12.1834 0.347586C11.7199 -0.115862 10.9684 -0.115862 10.5054 0.347586L4.13665 6.71586C3.6732 7.17931 3.6732 7.93086 4.13665 8.39431L5.28337 9.54103L13.3301 1.49431Z" fill="#E7ECED"/>
<path d="M25.8652 14.0309L24.1439 12.3096L16.0977 20.3563L17.8185 22.0772C18.282 22.5406 19.0335 22.5406 19.4965 22.0772L25.8647 15.7089C26.3287 15.2459 26.3287 14.4944 25.8652 14.0309Z" fill="#E7ECED"/>
<path d="M21.2982 18.3619C21.8695 18.3619 22.3326 17.8988 22.3326 17.3275C22.3326 16.7561 21.8695 16.293 21.2982 16.293C20.7268 16.293 20.2637 16.7561 20.2637 17.3275C20.2637 17.8988 20.7268 18.3619 21.2982 18.3619Z" fill="white"/>
<path d="M8.10917 5.68921C7.97675 5.68921 7.84434 5.63852 7.74348 5.53766C7.54124 5.33542 7.54124 5.00852 7.74348 4.80628L8.77796 3.7718C8.9802 3.56956 9.3071 3.56956 9.50934 3.7718C9.71158 3.97404 9.71158 4.30094 9.50934 4.50318L8.47486 5.53766C8.374 5.63852 8.24158 5.68921 8.10917 5.68921Z" fill="#424A60"/>
</g>
<defs>
<clipPath id="clip0">
<rect width="30" height="30" fill="white"/>
</clipPath>
</defs>
</svg>
