<svg width="30" height="30" viewBox="0 0 30 30" fill="none" xmlns="http://www.w3.org/2000/svg">
<g clip-path="url(#clip0)">
<path d="M18.0879 25C17.1229 25 16.3379 25.785 16.3379 26.75C16.3379 27.715 17.1229 28.5001 18.0879 28.5001C19.0529 28.5001 19.8379 27.715 19.8379 26.75C19.8379 25.785 19.0524 25 18.0879 25ZM18.0879 27.5C17.6744 27.5 17.3379 27.1635 17.3379 26.75C17.3379 26.3365 17.6744 26 18.0879 26C18.5014 26 18.8379 26.3365 18.8379 26.75C18.8379 27.1635 18.5014 27.5 18.0879 27.5Z" fill="#8E8E93"/>
<path d="M20.3379 18.4991C21.4409 18.4991 22.338 17.6021 22.338 16.4991C22.338 15.396 21.4409 14.499 20.3379 14.499C19.2349 14.499 18.3379 15.396 18.3379 16.4991C18.3379 17.6021 19.2344 18.4991 20.3379 18.4991ZM20.3379 15.499C20.8894 15.499 21.3379 15.9475 21.3379 16.4991C21.3379 17.0506 20.8894 17.4991 20.3379 17.4991C19.7864 17.4991 19.3379 17.0506 19.3379 16.4991C19.3379 15.9475 19.7864 15.499 20.3379 15.499Z" fill="#8E8E93"/>
<path d="M8.33802 6.00016C8.46603 6.00016 8.59403 5.95116 8.69153 5.85366L9.69155 4.85364C9.88705 4.65814 9.88705 4.34213 9.69155 4.14663C9.49604 3.95112 9.18004 3.95112 8.98453 4.14663L7.98452 5.14664C7.78901 5.34215 7.78901 5.65815 7.98452 5.85366C8.08202 5.95116 8.21002 6.00016 8.33802 6.00016Z" fill="#8E8E93"/>
<path d="M26.3386 14.8731C26.3386 14.4331 26.1671 14.0196 25.8561 13.7086L25.5776 13.4301C26.0521 13.0101 26.3381 12.4026 26.3381 11.7491C26.3381 10.5086 25.3286 9.49906 24.0881 9.49906C23.9971 9.49906 23.9071 9.50806 23.8181 9.51906C23.8291 9.42955 23.8381 9.34055 23.8381 9.24905C23.8381 8.00853 22.8286 6.99901 21.588 6.99901C21.497 6.99901 21.407 7.00802 21.318 7.01902C21.329 6.92951 21.338 6.84051 21.338 6.74901C21.338 5.50849 20.3285 4.49897 19.088 4.49897C18.997 4.49897 18.907 4.50797 18.818 4.51897C18.829 4.42947 18.838 4.34047 18.838 4.24897C18.838 3.00845 17.8285 1.99893 16.5879 1.99893C15.9339 1.99893 15.3269 2.28544 14.9069 2.75944L14.5099 2.36244L12.6284 0.480906C11.9859 -0.161604 10.9409 -0.161604 10.2993 0.480906L4.14324 6.63701C3.50173 7.27952 3.50173 8.32404 4.14324 8.96655L6.02477 10.8481L8.47981 13.3031C7.8018 13.6911 7.3383 14.4136 7.3383 15.2492C7.3383 16.0307 7.7398 16.7197 8.34681 17.1232C8.37731 17.1637 8.41281 17.2037 8.46031 17.2442L13.8384 22.6018V23.4998H12.8384V29.9999H21.8385H25.8386V23.4998H24.8386V21.9848C25.7951 21.1743 26.3386 20.0087 26.3386 18.7492C26.3386 17.8792 26.0671 17.0342 25.5706 16.3232L25.8561 16.0377C26.1671 15.7267 26.3386 15.3132 26.3386 14.8731ZM25.3386 11.7491C25.3386 12.1331 25.1616 12.4886 24.8701 12.7226L23.1146 10.9671C23.3486 10.6756 23.7046 10.4986 24.0881 10.4986C24.7776 10.4991 25.3386 11.0596 25.3386 11.7491ZM22.8386 9.24905C22.8386 9.63306 22.6616 9.98856 22.37 10.2226L20.6145 8.46704C20.8485 8.17553 21.2045 7.99853 21.588 7.99853C22.2775 7.99903 22.8386 8.55954 22.8386 9.24905ZM20.3385 6.74901C20.3385 7.13302 20.1615 7.48852 19.87 7.72253L18.1145 5.967C18.3485 5.67549 18.7045 5.49849 19.088 5.49849C19.7775 5.49899 20.3385 6.0595 20.3385 6.74901ZM16.5884 2.99895C17.278 2.99895 17.8385 3.55946 17.8385 4.24897C17.8385 4.63298 17.6615 4.98848 17.37 5.22249L15.6144 3.46696C15.8484 3.17595 16.2044 2.99895 16.5884 2.99895ZM4.85025 8.26004C4.59825 8.00753 4.59825 7.59702 4.85025 7.34452L11.0064 1.18842C11.0689 1.12592 11.1419 1.07892 11.2194 1.04742C11.2544 1.03292 11.2939 1.03342 11.3309 1.02542C11.4199 1.00642 11.5079 1.00642 11.5969 1.02542C11.6339 1.03342 11.6734 1.03292 11.7084 1.04742C11.7859 1.07892 11.8584 1.12592 11.9214 1.18842L13.0959 2.36294L6.02477 9.43406L4.85025 8.26004ZM13.8029 3.06995L14.3919 3.65896L16.892 6.159L17.1785 6.44551L19.392 8.65904L19.6785 8.94555L21.892 11.1591L22.1785 11.4456L24.6786 13.9456L25.1486 14.4156C25.4011 14.6681 25.4011 15.0781 25.1486 15.3307L24.9301 15.5497L18.993 21.4873C18.7415 21.7393 18.33 21.7403 18.0775 21.4873L14.0899 17.4992H14.5879C15.8284 17.4992 16.838 16.4897 16.838 15.2492C16.838 14.0086 15.8284 12.9991 14.5879 12.9991H9.58933L6.73129 10.1411L13.8029 3.06995ZM9.31833 14.0301L9.52583 14.0066C9.54633 14.0036 9.56683 13.9991 9.58783 13.9991H14.5879C15.2774 13.9991 15.8379 14.5596 15.8379 15.2492C15.8379 15.9387 15.2774 16.4992 14.5879 16.4992H13.0899H11.6759H9.58783C8.89832 16.4992 8.33781 15.9387 8.33781 15.2492C8.33831 14.6526 8.75882 14.1541 9.31833 14.0301ZM13.8384 28.9994V24.4993H18.0515C19.588 24.4993 20.8385 25.7498 20.8385 27.2864V28.9994H13.8384ZM24.8386 28.9994H21.8385V27.2864C21.8385 26.1833 21.3615 25.1923 20.6065 24.4993H24.8386V28.9994ZM24.8511 17.0432C25.1681 17.5537 25.3386 18.1442 25.3386 18.7492C25.3386 19.7767 24.8646 20.7222 24.0376 21.3448L23.8386 21.4948V23.4993H18.051H14.8379V22.1403L14.6614 21.9908C14.6389 21.9713 14.6149 21.9533 14.5714 21.9208L10.1328 17.4987H12.6754L17.37 22.1938C17.6915 22.5148 18.113 22.6753 18.5345 22.6753C18.9565 22.6753 19.3785 22.5148 19.6995 22.1938L24.8511 17.0432Z" fill="#8E8E93"/>
</g>
<defs>
<clipPath id="clip0">
<rect width="30" height="30" fill="white"/>
</clipPath>
</defs>
</svg>

