<svg width="21" height="25" viewBox="0 0 21 25" fill="none" xmlns="http://www.w3.org/2000/svg">
<path d="M18.0052 17.8704L14.0248 15.8804C13.6493 15.6925 13.416 15.315 13.416 14.895V13.4862C13.5114 13.3696 13.6119 13.2367 13.7156 13.09C14.2319 12.3608 14.6456 11.5492 14.9464 10.6737C15.5343 10.4042 15.916 9.82292 15.916 9.16667V7.5C15.916 7.09875 15.766 6.71 15.4993 6.40625V4.19C15.5227 3.96083 15.6144 2.59667 14.6277 1.47125C13.7718 0.495 12.3831 0 10.4993 0C8.6156 0 7.22685 0.495 6.37102 1.47083C5.38435 2.59625 5.47602 3.96083 5.49935 4.19V6.40625C5.23268 6.71 5.08268 7.09875 5.08268 7.5V9.16667C5.08268 9.67375 5.3131 10.1467 5.70643 10.4621C6.0881 11.9733 6.88685 13.1121 7.16602 13.4775V14.8562C7.16602 15.2596 6.94602 15.6296 6.59227 15.8229L2.87518 17.8504C1.66643 18.51 0.916016 19.7742 0.916016 21.1508V22.5C0.916016 24.4775 7.18477 25 10.4993 25C13.8139 25 20.0827 24.4775 20.0827 22.5V21.2321C20.0827 19.7996 19.2864 18.5112 18.0052 17.8704ZM19.2493 22.5C19.2493 23.0654 16.161 24.1667 10.4993 24.1667C4.83768 24.1667 1.74935 23.0654 1.74935 22.5V21.1508C1.74935 20.0796 2.33352 19.095 3.27393 18.5825L6.99102 16.555C7.6131 16.2154 7.99935 15.5642 7.99935 14.8562V13.1817L7.90227 13.0658C7.89227 13.0538 6.87102 11.8183 6.48143 10.1221L6.44352 9.95708L6.30143 9.86542C6.06018 9.70958 5.91602 9.44833 5.91602 9.16667V7.5C5.91602 7.26625 6.01518 7.04833 6.19518 6.88542L6.33268 6.76167V4.16667L6.32893 4.11208C6.32768 4.10083 6.18602 2.94583 6.99768 2.02C7.6881 1.2325 8.86643 0.833333 10.4993 0.833333C12.1264 0.833333 13.3023 1.22958 13.9935 2.01167C14.8048 2.92875 14.6706 4.10208 14.6698 4.11208L14.666 6.76167L14.8035 6.88583C14.9835 7.04833 15.0827 7.26625 15.0827 7.5V9.16667C15.0827 9.53042 14.8443 9.84875 14.4902 9.95792L14.2827 10.0217L14.216 10.2279C13.9373 11.095 13.5402 11.8958 13.0352 12.6083C12.9114 12.7837 12.791 12.9392 12.6864 13.0579L12.5827 13.1762V14.895C12.5827 15.6325 12.9923 16.2954 13.6519 16.6254L17.6323 18.6154C18.6298 19.1142 19.2493 20.1167 19.2493 21.2321V22.5Z" fill="white"/>
</svg>
